<?xml version="1.0" standalone="no"?>
<!DOCTYPE svg PUBLIC "-//W3C//DTD SVG 20010904//EN"
 "http://www.w3.org/TR/2001/REC-SVG-20010904/DTD/svg10.dtd">
<svg version="1.0" xmlns="http://www.w3.org/2000/svg"
 width="512.000000pt" height="512.000000pt" viewBox="0 0 512.000000 512.000000"
 preserveAspectRatio="xMidYMid meet">
<metadata>
Created by potrace 1.14, written by Peter Selinger 2001-2017
</metadata>
<g transform="translate(0.000000,512.000000) scale(0.100000,-0.100000)"
fill="#000000" stroke="none">
<path d="M2343 4950 c-302 -30 -566 -106 -848 -245 -214 -106 -403 -236 -563
-387 l-53 -51 23 -45 c29 -58 268 -301 398 -404 204 -163 465 -312 653 -373
196 -64 307 -145 374 -271 52 -98 66 -163 61 -278 -6 -110 -20 -157 -75 -244
-77 -122 -221 -214 -364 -232 -88 -11 -321 2 -449 24 -187 33 -379 102 -510
184 -155 96 -182 106 -290 106 -128 0 -220 -27 -399 -116 l-143 -73 7 -105
c39 -612 282 -1156 705 -1579 485 -485 1178 -744 1855 -693 497 38 962 221
1345 529 552 444 890 1151 890 1862 0 634 -254 1246 -705 1696 -97 98 -268
244 -250 215 5 -8 32 -49 60 -90 206 -303 341 -660 391 -1035 19 -143 22 -449
5 -580 -19 -142 -57 -320 -96 -444 -36 -112 -37 -113 -63 -107 -15 4 -81 9
-147 13 -147 7 -258 -12 -390 -65 -83 -33 -98 -36 -195 -36 -98 -1 -110 1
-173 31 -162 77 -254 250 -226 425 13 81 47 150 109 223 29 33 60 77 71 97 76
148 64 375 -37 678 -61 182 -73 237 -80 360 -11 177 23 395 98 620 46 139 66
182 94 206 l26 21 -88 33 c-123 44 -327 95 -464 115 -137 19 -428 27 -557 15z
m472 -3275 c152 -40 283 -126 464 -306 98 -97 221 -236 221 -250 0 -20 -193
-141 -347 -218 -265 -132 -510 -205 -816 -242 -149 -18 -512 -7 -657 20 -147
28 -322 74 -425 113 -125 47 -316 140 -312 152 6 19 119 106 186 144 87 48
162 75 333 116 309 74 506 160 629 273 123 113 239 175 389 208 80 18 250 13
335 -10z"/>
<path d="M759 4143 c-13 -16 -12 -17 4 -4 9 7 17 15 17 17 0 8 -8 3 -21 -13z"/>
<path d="M171 2794 c0 -11 3 -14 6 -6 3 7 2 16 -1 19 -3 4 -6 -2 -5 -13z"/>
<path d="M162 2655 c0 -16 2 -22 5 -12 2 9 2 23 0 30 -3 6 -5 -1 -5 -18z"/>
</g>
</svg>
